<svg xmlns="http://www.w3.org/2000/svg" width="900" height="650" viewBox="0 0 900 650">
  <defs>
    <clipPath id="avatarClip"><circle cx="120" cy="80" r="70"/></clipPath>
    <clipPath id="cardClip1"><rect x="0" y="0" width="540" height="600" rx="18"/></clipPath>
    <clipPath id="cardClip2"><rect x="0" y="0" width="305" height="160" rx="18"/></clipPath>
    <clipPath id="cardClip3"><rect x="0" y="0" width="305" height="100" rx="18"/></clipPath>
    <clipPath id="cardClip4"><rect x="0" y="0" width="305" height="160" rx="18"/></clipPath>
    <clipPath id="cardClip5"><rect x="0" y="0" width="305" height="150" rx="18"/></clipPath>
  </defs>

  <!-- 背景 -->
  <rect width="100%" height="100%" fill="#0d1117" />

  <!-- ========== 左：プロフィールカード ========== -->
  <g transform="translate(15, 15)">
    <rect width="550" height="620" rx="18" fill="#161b22" stroke="#30363d" stroke-width="1" />

    <!-- アバター -->
    <image href="https://avatars.githubusercontent.com/u/92196121?v=4" x="50" y="20" width="140" height="140" clip-path="url(#avatarClip)" />

    <!-- 名前など -->
    <text x="120" y="190" text-anchor="middle" fill="#ffffff" font-size="28" font-weight="bold">Taketo Yamamoto</text>
    <text x="120" y="215" text-anchor="middle" fill="#8b949e" font-size="18">UNKOMAN</text>
    <text x="120" y="240" text-anchor="middle" fill="#8b949e" font-size="14">私は頭がおかしいです。
スタレ中: 
それは相当やばいね。
どうにか思い出せない？
あんたの名前は...
私はunkoman！！</text>

    <!-- 年齢 -->
    <text x="120" y="275" text-anchor="middle" fill="#58a6ff" font-size="16" font-weight="bold">🎂 14歳 9ヶ月 7日</text>

    <!-- Discordプレゼンス（外部SVG） -->
    <image href="https://lanyard.cnrad.dev/api/985151399207788615?animated=false&showDisplayName=true" x="20" y="300" width="510" height="160" />

    <!-- 訪問者カウンター（右下） -->
    <image href="https://komarev.com/ghpvc/?username=Takkun2355&style=flat-square" x="400" y="580" width="120" height="25" />
    <text x="400" y="575" fill="#8b949e" font-size="11">Visitors:</text>
  </g>

  <!-- ========== 右カラム ========== -->
  <!-- Top Languages -->
  <g transform="translate(580, 15)">
    <rect width="305" height="160" rx="18" fill="#161b22" stroke="#30363d" stroke-width="1" />
    <text x="20" y="30" fill="#ffffff" font-size="16" font-weight="bold">Top Languages</text>
    
      <text x="20" y="78" fill="#8b949e" font-size="12">Python</text>
      <rect x="100" y="67" width="184" height="12" rx="6" fill="#58a6ff" />
      <text x="289" y="78" fill="#ffffff" font-size="11">80.0%</text>
      <text x="20" y="106" fill="#8b949e" font-size="12">JavaScript</text>
      <rect x="100" y="95" width="46" height="12" rx="6" fill="#58a6ff" />
      <text x="151" y="106" fill="#ffffff" font-size="11">20.0%</text>
  </g>

  <!-- GitHub Stats -->
  <g transform="translate(580, 190)">
    <rect width="305" height="100" rx="18" fill="#161b22" stroke="#30363d" stroke-width="1" />
    <text x="20" y="30" fill="#ffffff" font-size="16" font-weight="bold">GitHub Stats</text>
    <text x="30" y="60" fill="#58a6ff" font-size="18">📦 7</text>
    <text x="130" y="60" fill="#58a6ff" font-size="18">👥 3</text>
    <text x="30" y="80" fill="#8b949e" font-size="11">Public Repos</text>
    <text x="130" y="80" fill="#8b949e" font-size="11">Followers</text>
  </g>

  <!-- Trophy（外部SVG） -->
  <g transform="translate(580, 305)">
    <rect width="305" height="160" rx="18" fill="#161b22" stroke="#30363d" stroke-width="1" />
    <text x="20" y="25" fill="#ffffff" font-size="16" font-weight="bold">🏆 Trophy</text>
    <image href="https://github-profile-trophy.vercel.app/?username=Takkun2355&theme=tokyonight&row=1&column=6" x="10" y="35" width="285" height="115" />
  </g>

  <!-- Profile Summary（外部SVG） -->
  <g transform="translate(580, 480)">
    <rect width="305" height="150" rx="18" fill="#161b22" stroke="#30363d" stroke-width="1" />
    <text x="20" y="25" fill="#ffffff" font-size="16" font-weight="bold">📊 Summary</text>
    <image href="https://github-profile-summary-cards.vercel.app/api/cards/profile-details?username=Takkun2355&theme=tokyonight" x="10" y="35" width="285" height="105" />
  </g>
</svg>